<svg width="876" height="930" viewBox="0 0 876 930" fill="none" xmlns="http://www.w3.org/2000/svg">
<path fill-rule="evenodd" clip-rule="evenodd" d="M730.923 625.677L608.052 929.793L303.936 806.922L389.346 595.524C410.035 544.317 468.318 519.578 519.525 540.267L730.923 625.677ZM225.865 420.241C309.844 454.171 350.417 549.756 316.487 633.735C282.557 717.714 186.973 758.288 102.994 724.358C19.0143 690.428 -21.5588 594.843 12.371 510.864C46.3009 426.885 141.885 386.312 225.865 420.241ZM875.923 267.677L753.052 571.793L541.654 486.383C490.447 465.694 465.707 407.411 486.396 356.204L571.807 144.806L875.923 267.677ZM521.923 123.677L436.513 335.075C415.824 386.282 357.54 411.021 306.333 390.333L94.9356 304.922L217.807 0.805908L521.923 123.677Z" fill="url(#paint0_linear_1_3)"/>
<defs>
<linearGradient id="paint0_linear_1_3" x1="222.383" y1="2.65483" x2="610.24" y2="925.355" gradientUnits="userSpaceOnUse">
<stop stop-color="#FF8F71"/>
<stop offset="1" stop-color="#FF3E55"/>
</linearGradient>
</defs>
</svg>
